<?xml version="1.0" standalone="no"?><!DOCTYPE svg PUBLIC "-//W3C//DTD SVG 1.1//EN" "http://www.w3.org/Graphics/SVG/1.1/DTD/svg11.dtd"><svg t="1538276445055" class="icon" style="" viewBox="0 0 1024 1024" version="1.1" xmlns="http://www.w3.org/2000/svg" p-id="1921" xmlns:xlink="http://www.w3.org/1999/xlink" width="200" height="200"><defs><style type="text/css"></style></defs><path d="M991.418182 972.8L791.272727 772.654545c79.127273-83.781818 130.327273-195.490909 130.327273-316.50909 0-251.345455-200.145455-451.490909-446.836364-451.49091C232.727273 0 32.581818 204.8 32.581818 451.490909s200.145455 451.490909 446.836364 451.490909c97.745455 0 190.836364-32.581818 265.309091-88.436363l200.145454 204.8 46.545455-46.545455zM102.4 451.490909c0-209.454545 167.563636-381.672727 377.018182-381.672727s377.018182 172.218182 377.018182 381.672727-172.218182 386.327273-381.672728 386.327273c-204.8 0-372.363636-172.218182-372.363636-386.327273z" p-id="1922" fill="#707070"></path></svg>