<?xml version="1.0" standalone="no"?><!DOCTYPE svg PUBLIC "-//W3C//DTD SVG 1.1//EN" "http://www.w3.org/Graphics/SVG/1.1/DTD/svg11.dtd"><svg t="1538201285363" class="icon" style="" viewBox="0 0 1024 1024" version="1.1" xmlns="http://www.w3.org/2000/svg" p-id="2136" xmlns:xlink="http://www.w3.org/1999/xlink" width="200" height="200"><defs><style type="text/css"></style></defs><path d="M511 664.4h1.2c92.5 0 167.8-75.3 167.8-167.7V232.4c0-92.5-75.3-167.8-168.9-167.8-92.5 0-167.8 75.3-167.8 167.8v264.2c0 92.5 75.2 167.8 167.7 167.8z m-111.8-432c0-61.7 50.2-111.8 113-111.8 61.7 0 111.8 50.2 111.8 111.8v264.2c0 61.7-50.2 111.8-111.8 111.8H511c-61.7 0-111.8-50.2-111.8-111.8V232.4z" fill="#666666" p-id="2137"></path><path d="M776 903.4H537.2V770.9C689.4 758 809.5 630.3 809.5 474.8c0-15.4-12.5-28-28-28-15.4 0-28 12.5-28 28 0 133.1-108.3 241.5-241.5 241.5S270.6 607.9 270.6 474.8c0-15.4-12.5-28-28-28s-28 12.5-28 28c0 153.6 117 280.3 266.6 295.8v132.9H242.5c-15.4 0-28 12.5-28 28 0 15.4 12.5 28 28 28H776c15.4 0 28-12.5 28-28-0.1-15.5-12.6-28.1-28-28.1z" fill="#666666" p-id="2138"></path></svg>